<?xml version="1.0" encoding="UTF-8" standalone="no"?>
<!DOCTYPE svg PUBLIC "-//W3C//DTD SVG 1.1//EN" "http://www.w3.org/Graphics/SVG/1.1/DTD/svg11.dtd">
<svg width="452" height="452" viewBox="0 0 452 452" fill="none" xmlns="http://www.w3.org/2000/svg">
<path d="M225.802 451.605C350.51 451.605 451.605 350.51 451.605 225.802C451.605 101.095 350.51 0 225.802 0C101.095 0 0 101.095 0 225.802C0 350.51 101.095 451.605 225.802 451.605Z" fill="url(#paint0_linear)"/>
<path d="M87.5651 404.358C88.3507 404.165 89.0751 403.931 89.5832 403.529C90.3489 402.9 91.2596 402.82 92.1552 402.741C93.0552 402.662 93.9398 402.584 94.6466 401.952C95.8366 400.899 97.4729 400.899 98.889 401.423C100.888 402.268 102.536 402.053 103.833 400.584C104.217 400.172 104.702 399.868 105.239 399.702C105.777 399.536 106.349 399.514 106.898 399.638C109.486 399.953 111.485 399.322 112.193 396.692C112.289 396.357 112.69 396.017 113.026 395.733C113.107 395.664 113.184 395.599 113.252 395.538C114.137 395.87 114.229 396.532 114.316 397.16C114.449 398.12 114.571 399.002 117.495 398.513C118.807 396.964 119.718 395.817 120.811 394.44C121.204 393.945 121.621 393.421 122.088 392.837C122.189 392.459 122.67 392.087 123.446 391.485C123.539 391.414 123.635 391.339 123.736 391.26C124.085 391.627 124.465 391.992 124.831 392.344C125.201 392.7 125.558 393.043 125.854 393.36C129.978 393.045 133.744 392.73 137.159 390.945C137.756 390.612 138.497 390.491 139.26 390.366C139.698 390.294 140.144 390.221 140.575 390.106C140.712 390.081 140.868 390.062 141.031 390.042C141.571 389.976 142.185 389.901 142.455 389.576C143.781 388.332 145.471 387.904 147.156 387.477C148.17 387.22 149.182 386.964 150.113 386.53C150.631 386.282 151.156 386.041 151.681 385.801C154.489 384.514 157.295 383.229 159.18 380.752C159.247 380.632 159.428 380.579 159.634 380.519C159.794 380.472 159.97 380.421 160.12 380.33C160.442 380.558 160.795 380.755 161.181 380.971C161.509 381.154 161.861 381.351 162.239 381.591C162.729 381.274 163.237 380.971 163.749 380.666C164.589 380.164 165.44 379.657 166.243 379.068C167.069 378.412 167.826 377.655 168.686 376.795C169.065 376.417 169.463 376.018 169.896 375.6C170.489 375.373 171.218 375.35 171.992 375.326C173.37 375.282 174.887 375.235 176.019 374.023C175.954 373.739 175.874 373.459 175.781 373.184C174.591 370.869 174.591 370.138 176.376 368.876C176.436 368.831 176.495 368.786 176.555 368.74C178.022 367.628 179.413 366.574 181.677 366.877C182.408 367.021 183.195 366.816 183.999 366.607C184.361 366.513 184.727 366.418 185.093 366.353C185.449 366.473 185.687 366.743 185.922 367.009C186.308 367.446 186.686 367.873 187.562 367.615C188.501 366.778 188.249 365.903 187.964 364.916C187.784 364.29 187.591 363.619 187.681 362.884C188.349 362.373 189.027 361.853 189.713 361.327C192.41 359.259 195.228 357.098 198.046 355.001C198.541 354.56 199.171 354.299 199.833 354.261C200.495 354.223 201.151 354.411 201.693 354.792C201.503 355.133 201.279 355.474 201.054 355.815C200.863 356.105 200.673 356.395 200.503 356.685C201.25 356.866 202.032 356.833 202.761 356.591C203.49 356.349 204.136 355.908 204.626 355.316C204.962 354.978 205.241 354.588 205.453 354.162C206.864 351.324 209.22 349.223 211.695 347.331C212.216 346.929 212.713 346.496 213.209 346.063C215.179 344.347 217.136 342.641 220.525 342.916C220.996 342.819 221.418 342.558 221.715 342.178C222.787 341.255 223.808 340.274 224.773 339.239C225.266 338.667 225.721 338.072 226.175 337.479C227.136 336.225 228.089 334.982 229.367 333.979C229.943 333.505 230.43 332.943 230.915 332.381C231.934 331.204 232.95 330.03 234.787 329.672C235.019 329.672 235.257 329.255 235.382 328.94C235.668 327.913 236.501 327.375 237.372 326.813C237.572 326.684 237.773 326.554 237.97 326.417C238.063 326.353 238.156 326.289 238.25 326.225C239.71 325.223 241.316 324.12 242.094 322.734C242.826 321.238 244.03 320.073 245.198 318.944C245.34 318.807 245.482 318.67 245.622 318.533C246.375 317.694 247.061 316.792 247.717 315.927C247.885 315.706 248.051 315.487 248.216 315.273C248.596 314.612 249.071 314.01 249.626 313.488C251.606 312.162 253.125 310.425 254.626 308.707C255.268 307.973 255.906 307.243 256.576 306.55C259.051 303.926 260.812 300.874 261.288 297.304C261.401 296.465 261.883 295.304 262.579 294.989C265.2 293.894 266.511 291.785 267.818 289.683C268.392 288.76 268.965 287.838 269.648 287.004C270.286 286.15 270.655 285.124 270.707 284.059C271.097 281.647 272 279.414 272.9 277.186C273.372 276.017 273.844 274.85 274.241 273.658C274.59 272.665 275.107 271.739 275.771 270.921C278.716 267.56 280.715 263.882 281.185 259.575C281.26 258.651 281.656 257.771 282.057 256.881C282.297 256.349 282.538 255.813 282.714 255.261C283.309 253.898 283.904 252.53 284.499 251.06C284.806 250.33 285.046 249.581 285.287 248.829C285.601 247.847 285.917 246.861 286.385 245.908C287.712 243.058 288.7 240.062 289.331 236.983C290.505 232.067 292.41 227.356 294.983 223.006C295.952 221.46 296.63 219.75 296.982 217.96C297.659 214.575 299.358 211.512 301.047 208.465C301.718 207.255 302.388 206.047 302.992 204.823L309.935 184.539C312.762 178.446 314.178 176.763 321.24 174.87L322.889 174.347C330.189 172.241 335.134 170.979 337.728 170.348C342.34 169.235 347.106 168.119 350.168 167.402C351.721 167.038 352.835 166.777 353.269 166.671L358.214 165.725C360.808 165.202 371.405 162.786 374.231 162.048C375.296 161.587 376.399 161.219 377.527 160.947C377.527 160.947 380.943 159.686 382.472 160.632C383.393 160.358 384.34 160.182 385.298 160.108C385.454 160.108 385.496 160.131 385.535 160.128C385.616 160.121 385.687 160.006 386.714 159.371C388.454 158.318 390.453 157.772 392.486 157.794C393.375 157.601 394.292 157.567 395.193 157.693C396.734 157.762 398.269 157.937 399.786 158.216H400.018C400.472 157.995 400.946 157.82 401.435 157.693C401.716 157.524 401.998 157.372 402.273 157.224C402.684 157.002 403.081 156.788 403.434 156.538C403.653 156.408 403.837 156.318 404.01 156.234C404.395 156.046 404.717 155.888 405.219 155.378L405.338 155.277C404.895 155.604 405.282 154.784 405.691 153.916C405.937 153.395 406.191 152.857 406.278 152.54C406.471 151.634 406.43 150.694 406.159 149.809C401.684 148.548 398.388 148.339 393.563 148.339C392.277 148.363 390.998 148.149 389.79 147.709C387.915 147.935 386.027 148.04 384.138 148.024C379.147 147.949 374.156 148.197 369.197 148.768C365.074 149.19 360.957 149.714 356.833 150.243C350.473 151.082 344.933 152.028 339.876 152.974C336.362 153.673 332.85 154.415 329.407 155.143C327.656 155.514 325.922 155.88 324.215 156.235C322.686 156.55 321.24 155.39 321.621 154.028C322.324 151.436 323.451 148.998 324.565 146.587C324.763 146.159 324.961 145.732 325.156 145.305C326.572 142.467 330.219 132.167 330.927 130.061C332.024 127.02 332.951 123.957 333.875 120.904C334.834 117.732 335.791 114.572 336.931 111.461C338.216 108.026 339.305 104.42 340.377 100.873C340.486 100.512 340.594 100.152 340.703 99.7934C340.783 99.5408 340.99 98.6742 341.256 97.561C341.76 95.4479 342.476 92.4463 342.94 91.0707C343.351 89.8629 343.733 88.6285 344.115 87.394C344.497 86.1592 344.88 84.9244 345.29 83.7165C345.644 82.6129 345.969 81.5362 346.293 80.4594C346.617 79.3823 346.941 78.3051 347.296 77.2012C347.511 76.5652 347.737 75.9296 347.963 75.2923C348.598 73.5033 349.237 71.7013 349.676 69.8411C350.321 67.5344 350.856 65.2277 351.394 62.9115C351.641 61.852 351.887 60.7905 352.145 59.7261C352.437 58.5154 352.974 57.3778 353.725 56.3839C354.475 55.39 355.422 54.5611 356.506 53.9486C358.557 52.7278 360.69 51.5412 362.833 50.349C363.839 49.7899 364.846 49.2295 365.848 48.6638C355.794 40.7045 345.047 33.583 333.712 27.4046C333.316 28.9726 332.903 30.5424 332.489 32.1163C331.732 34.9978 330.97 37.8932 330.302 40.817C329.707 43.3398 328.184 44.6012 325.709 45.6543C315.352 49.8724 304.647 53.5523 293.966 57.2241C292.142 57.8512 290.319 58.478 288.498 59.1073C287.02 59.6079 285.543 60.1114 284.068 60.6148C272.845 64.4422 261.648 68.261 249.995 70.7693C249.347 70.9155 248.715 71.1268 248.109 71.4C243.516 72.819 238.924 74.2113 234.332 75.6036C229.74 76.9959 225.148 78.3882 220.555 79.8073C216.417 81.0957 212.27 82.3607 208.124 83.6252C199.747 86.1799 191.376 88.7331 183.105 91.4753C169.212 96.2055 155.319 101.144 141.777 106.713C129.645 111.652 117.75 117.12 105.975 122.778C97.0929 127.088 88.5167 132.002 80.3071 137.487C70.9104 143.729 62.1177 150.837 54.0438 158.716C48.0403 164.393 52.8538 168.915 53.3417 169.331C54.7848 170.499 55.9512 171.972 56.757 173.645C57.0884 174.519 57.6108 175.307 58.2862 175.953C61.9104 179.189 66.1506 181.695 70.4468 184.234C70.7564 184.416 71.0662 184.6 71.3762 184.783C71.6702 184.88 71.9472 185.023 72.1973 185.206C79.0279 187.514 85.8823 189.513 93.1591 189.615C94.305 189.611 95.4486 189.716 96.5744 189.93C97.8115 190.134 99.0432 190.236 100.28 190.338L100.46 190.352C101.055 190.352 143.675 189.305 174.412 177.857C177.358 176.81 179.119 173.341 173.817 172.919L166.517 172.288C164.159 172.146 161.793 172.216 159.448 172.496C158.728 172.559 158.007 172.629 157.284 172.7C154.348 172.988 151.38 173.279 148.262 173.026C146.223 172.848 144.171 172.882 142.14 173.127C140.599 173.26 139.058 173.45 137.507 173.64C135.386 173.901 133.248 174.164 131.073 174.287C126.36 174.603 121.648 174.704 116.822 174.603C109.649 174.489 102.582 172.848 96.0925 169.789C94.2706 168.932 92.7219 167.587 91.6181 165.904C89.2381 162.12 89.3809 158.859 92.5582 156.021C95.3964 153.49 98.4993 151.189 101.559 148.919C102.053 148.553 102.546 148.187 103.036 147.822C104.034 147.09 105.12 146.41 106.204 145.73C107.299 145.045 108.393 144.359 109.397 143.621L109.427 143.599C113.189 140.768 116.947 137.94 121.41 136.261C122.715 135.778 123.975 135.18 125.176 134.476C126.092 133.919 126.998 133.354 127.904 132.79C131.776 130.379 135.622 127.984 140.015 126.277C142.158 125.48 144.21 124.459 146.138 123.23C148.964 121.237 152.028 119.446 155.557 118.714C156.39 118.51 157.191 118.192 157.937 117.768C163.119 114.793 168.772 112.616 174.543 110.515C179.72 108.623 184.783 106.838 189.966 105.047C192.019 104.336 194.035 103.6 196.054 102.863C198.207 102.077 200.363 101.29 202.568 100.531C204.455 99.866 206.385 99.257 208.313 98.6487C210.954 97.815 213.592 96.9827 216.11 96.0092C222.065 93.7013 228.16 91.7716 234.359 90.2317C237.298 89.5398 240.086 88.5783 242.888 87.612C244.351 87.1075 245.818 86.6016 247.312 86.1322C247.725 86.0281 248.109 85.8973 248.494 85.7657C248.881 85.634 249.269 85.5015 249.692 85.3944C250.238 85.2505 250.787 85.1127 251.337 84.9746C253.995 84.308 256.675 83.6359 259.111 82.2409C259.987 81.791 260.952 81.5411 261.937 81.509C265.031 81.4183 267.87 80.5763 270.669 79.7458C271.174 79.5959 271.678 79.4463 272.183 79.3016C273.693 78.888 275.202 78.5251 276.711 78.1622C278.263 77.7888 279.816 77.4154 281.37 76.987C282.435 76.6627 283.501 76.3297 284.569 75.9959C288.693 74.707 292.848 73.4087 297.149 72.5721C297.635 72.4451 298.108 72.2697 298.559 72.0485C304.331 70.3706 310.102 68.7939 315.874 67.2171C315.968 67.1922 316.063 67.1659 316.16 67.1393C317.285 66.8292 318.583 66.4719 319.991 67.6336C319.928 68.4477 319.81 69.2567 319.64 70.0553C319.384 70.8002 319.133 71.5415 318.883 72.2798C317.865 75.2857 316.863 78.2416 315.636 81.1937C312.218 89.4199 308.768 97.6461 305.319 105.871C302.115 113.513 298.911 121.154 295.733 128.794C294.258 132.108 293 135.515 291.966 138.992C290.968 142.549 289.347 145.983 287.739 149.388C287.257 150.409 286.776 151.427 286.314 152.445C285.64 153.951 284.843 155.405 284.056 156.842C283.746 157.409 283.436 157.974 283.137 158.538C282.542 159.692 281.84 160.953 281.132 162.108C280.685 162.924 280.288 163.767 279.941 164.63C279.233 166.308 276.288 169.777 269.827 172.3C265.523 173.958 261.404 175.449 257.53 176.85C255.261 177.671 253.077 178.462 250.989 179.238C249.012 180.024 244.551 182.041 242.555 182.944C242.148 183.128 241.843 183.266 241.683 183.337C238.036 184.807 234.501 186.277 230.973 187.752C230.447 187.975 229.927 188.197 229.41 188.418C227.732 189.135 226.091 189.837 224.38 190.483C213.373 195.074 202.52 200.229 191.961 205.244C190.437 205.968 188.919 206.689 187.407 207.405L185.027 208.559C172.193 214.759 160.037 221.489 147.578 228.42C145.754 229.42 143.959 230.445 142.164 231.47C140.368 232.495 138.573 233.52 136.749 234.519C133.685 236.304 133.453 237.25 134.369 239.666L134.72 240.612C135.234 241.713 135.59 242.881 135.779 244.081C135.843 244.656 136.049 245.207 136.378 245.684C136.707 246.16 137.15 246.548 137.665 246.812C137.9 246.97 138.165 247.154 138.43 247.338C138.694 247.523 138.959 247.707 139.194 247.865C139.571 248.172 139.969 248.452 140.384 248.704C142.978 250.489 146.275 252.173 150.63 251.227C150.692 251.234 150.756 251.229 150.816 251.212C150.876 251.194 150.932 251.165 150.981 251.126C151.723 251.018 152.477 251.018 153.218 251.126H154.045C155.643 251.283 157.24 250.833 158.52 249.864C159.871 248.92 161.389 248.241 162.994 247.865L163.464 247.758C166.264 246.926 169.125 245.983 171.959 245.05C173.058 244.687 174.153 244.326 175.239 243.974L179.601 242.504L179.952 242.403L183.129 240.826C185.475 239.694 187.755 238.43 189.96 237.042L191.846 235.781C193.036 235.043 202.913 229.051 206.209 227.451C206.503 227.268 206.822 227.127 207.155 227.034C217.163 221.465 235.299 211.897 255.433 202.044C259.789 199.944 260.848 201.199 259.2 204.775L237.298 245.866L235.87 248.412C235.816 248.508 235.65 248.768 235.405 249.151C234.028 251.307 230.164 257.355 229.86 259.765C229.654 260.986 228.979 262.079 227.98 262.811C226.382 263.817 225.441 265.291 224.544 266.697C224.316 267.056 224.09 267.409 223.857 267.75C223.699 267.985 223.539 268.221 223.377 268.457C222.096 270.333 220.78 272.262 220.68 274.688C220.613 275.701 220.285 276.679 219.727 277.527C219.169 278.375 218.4 279.063 217.496 279.525C216.034 280.327 215.322 281.516 214.545 282.816C214.509 282.875 214.474 282.934 214.438 282.994C211.803 287.147 208.932 291.146 205.84 294.971C204.182 297.007 202.361 298.971 200.545 300.93C199.266 302.31 197.989 303.687 196.772 305.086C195.636 306.397 194.557 307.759 193.476 309.123C191.869 311.151 190.257 313.185 188.442 315.07C187.652 315.859 187.045 316.777 186.442 317.69C185.515 319.092 184.595 320.484 183.028 321.377C180.991 322.595 179.447 324.491 178.667 326.732C178.074 328.147 177.144 329.118 176.16 330.144C175.977 330.335 175.793 330.527 175.608 330.725C175.181 331.16 174.729 331.575 174.28 331.986C172.999 333.162 171.742 334.316 171.134 335.871C171.562 336.256 171.948 336.563 172.296 336.84C172.519 337.017 172.726 337.182 172.919 337.347C172.722 337.903 172.306 338.379 171.893 338.85C171.061 339.802 170.242 340.738 171.265 342.286C171.503 342.601 171.384 342.916 171.033 343.125C170.33 343.554 169.743 344.116 169.154 344.679C168.161 345.628 167.166 346.58 165.612 346.909C165.464 346.977 165.261 346.873 165.044 346.76C164.923 346.697 164.796 346.632 164.672 346.593C164.613 345.963 164.525 345.305 164.437 344.648C164.349 343.99 164.262 343.333 164.202 342.702C164.25 342.118 164.409 341.548 164.672 341.024C164.732 340.893 164.851 340.768 164.973 340.639C165.338 340.255 165.733 339.841 164.672 339.132C163.272 340.481 161.847 341.806 160.423 343.129C158.851 344.59 157.28 346.05 155.747 347.539C155.672 347.607 155.692 347.799 155.717 348.037C155.731 348.176 155.747 348.33 155.747 348.485C156.649 348.744 157.438 349.3 157.984 350.062C156.687 354.685 155.604 355.739 151.981 356.262C152.106 355.813 152.231 355.377 152.356 354.94C152.583 354.151 152.81 353.359 153.04 352.478C151.164 352.229 150.272 353.089 149.401 353.928C149.167 354.154 148.934 354.378 148.685 354.578C147.876 355.214 147.067 355.859 146.254 356.508C144.104 358.224 141.922 359.966 139.617 361.623C137.808 362.928 135.939 364.121 134.051 365.326C133.355 365.77 132.657 366.215 131.959 366.669C131.562 366.921 131.171 367.174 130.783 367.426C129.56 368.217 128.356 368.997 127.015 369.715L118.107 374.731C117.258 375.246 116.331 375.673 115.402 376.102C113.108 377.159 110.802 378.223 109.629 380.615C107.769 380.815 106.613 381.894 105.451 382.981C104.773 383.614 104.092 384.25 103.268 384.715C102.522 385.053 101.682 385.126 100.888 384.923C100.379 384.772 99.9829 384.343 99.6288 383.96C99.4944 383.814 99.3661 383.675 99.24 383.561C97.2217 384.186 96.3807 385.453 95.5459 386.711C95.2609 387.14 94.9767 387.568 94.6466 387.97C92.0584 390.945 89.2321 393.325 84.4067 393.015C81.5213 392.827 78.6408 393.415 76.3723 395.091C80.0013 398.297 83.7341 401.388 87.5651 404.358Z" fill="black" fill-opacity="0.75"/>
<path d="M162.678 331.745C219.937 331.745 266.355 285.327 266.355 228.068C266.355 170.808 219.937 124.39 162.678 124.39C105.418 124.39 59 170.808 59 228.068C59 285.327 105.418 331.745 162.678 331.745Z" fill="#CC9D39"/>
<path d="M294.887 328.355C352.147 328.355 398.565 281.937 398.565 224.677C398.565 167.418 352.147 121 294.887 121C237.628 121 191.21 167.418 191.21 224.677C191.21 281.937 237.628 328.355 294.887 328.355Z" fill="#1A1A1A" fill-opacity="0.85"/>
<defs>
<linearGradient id="paint0_linear" x1="140.551" y1="325.394" x2="387.678" y2="36.6996" gradientUnits="userSpaceOnUse">
<stop stop-color="#1B1B1B"/>
<stop offset="0.83" stop-color="#323232"/>
</linearGradient>
</defs>
</svg>
