<?xml version="1.0" encoding="UTF-8" standalone="no"?><!DOCTYPE svg PUBLIC "-//W3C//DTD SVG 1.1//EN" "http://www.w3.org/Graphics/SVG/1.1/DTD/svg11.dtd"><svg width="100%" height="100%" viewBox="0 0 408 561" version="1.1" xmlns="http://www.w3.org/2000/svg" xmlns:xlink="http://www.w3.org/1999/xlink" xml:space="preserve" xmlns:serif="http://www.serif.com/" style="fill-rule:evenodd;clip-rule:evenodd;stroke-linejoin:round;stroke-miterlimit:2;"><path id="sync" d="M204,76.5l0,-76.5l-102,102l102,102l0,-76.5c84.15,0 153,68.85 153,153c0,25.5 -7.65,51 -17.85,71.4l38.25,38.25c17.85,-33.15 30.6,-68.85 30.6,-109.65c0,-112.2 -91.8,-204 -204,-204Zm0,357c-84.15,0 -153,-68.85 -153,-153c0,-25.5 7.65,-51 17.85,-71.4l-38.25,-38.25c-17.85,33.15 -30.6,68.85 -30.6,109.65c0,112.2 91.8,204 204,204l0,76.5l102,-102l-102,-102l0,76.5Z" style="fill-rule:nonzero;"/></svg>